<svg width="350" height="64" viewBox="0 0 350 64" fill="none" xmlns="http://www.w3.org/2000/svg">
<svg
   xmlns:dc="http://purl.org/dc/elements/1.1/"
   xmlns:cc="http://creativecommons.org/ns#"
   xmlns:rdf="http://www.w3.org/1999/02/22-rdf-syntax-ns#"
   xmlns:svg="http://www.w3.org/2000/svg"
   xmlns="http://www.w3.org/2000/svg"
   xmlns:sodipodi="http://sodipodi.sourceforge.net/DTD/sodipodi-0.dtd"
   xmlns:inkscape="http://www.inkscape.org/namespaces/inkscape"
   version="1.1"
   id="svg2"
   xml:space="preserve"
   width="4000"
   height="2666.6667"
   viewBox="0 0 4000 2666.6667"
   sodipodi:docname="Printable resulation file.ai"><metadata
     id="metadata8"><rdf:RDF><cc:Work
         rdf:about=""><dc:format>image/svg+xml</dc:format><dc:type
           rdf:resource="http://purl.org/dc/dcmitype/StillImage" /></cc:Work></rdf:RDF></metadata><defs
     id="defs6"><clipPath
       clipPathUnits="userSpaceOnUse"
       id="clipPath18"><path
         d="M 0,2000 H 3000 V 0 H 0 Z"
         id="path16" /></clipPath></defs><sodipodi:namedview
     pagecolor="#ffffff"
     bordercolor="#666666"
     borderopacity="1"
     objecttolerance="10"
     gridtolerance="10"
     guidetolerance="10"
     inkscape:pageopacity="0"
     inkscape:pageshadow="2"
     inkscape:window-width="640"
     inkscape:window-height="480"
     id="namedview4" /><g
     id="g10"
     inkscape:groupmode="layer"
     inkscape:label="Printable resulation file"
     transform="matrix(1.3333333,0,0,-1.3333333,0,2666.6667)"><g
       id="g12"><g
         id="g14"
         clip-path="url(#clipPath18)"><g
           id="g20"
           transform="translate(1267.7559,1001.5811)"><path
             d="M 0,0 H 28.12 C 59.169,0 71.473,22.653 70.887,44.915 70.301,66.201 57.803,87.486 28.12,87.486 H 0 Z M 96.469,44.719 C 97.055,10.155 75.964,-24.801 28.12,-24.801 H -25.582 V 111.896 H 28.12 c 46.868,0 67.763,-33.393 68.349,-67.177"
             style="fill:#ff6c18;fill-opacity:1;fill-rule:nonzero;stroke:none"
             id="path22" /></g><g
           id="g24"
           transform="translate(1428.6655,1057.041)"><path
             d="m 0,0 36.322,56.437 h 31.05 V 55.265 L 12.888,-23.824 v -56.437 h -25.777 v 56.437 l -52.53,79.089 v 1.172 h 30.659 z"
             style="fill:#ff6c18;fill-opacity:1;fill-rule:nonzero;stroke:none"
             id="path26" /></g><g
           id="g28"
           transform="translate(1597.1904,1113.8682)"><path
             d="M 0,0 H 25.776 V -136.893 H 9.764 v -0.195 L -62.1,-44.72 v -92.173 H -87.876 V -0.195 h 20.894 L 0,-84.947 Z"
             style="fill:#ff6c18;fill-opacity:1;fill-rule:nonzero;stroke:none"
             id="path30" /></g><g
           id="g32"
           transform="translate(1748.5313,976.7803)"><path
             d="M 0,0 H -102.328 V 136.697 H 0 V 111.701 H -76.746 V 80.261 H -2.735 V 56.241 H -76.746 V 25.387 H 0 Z"
             style="fill:#ff6c18;fill-opacity:1;fill-rule:nonzero;stroke:none"
             id="path34" /></g><g
           id="g36"
           transform="translate(1928.3789,997.0898)"><path
             d="m 0,0 c -14.061,-13.865 -32.222,-20.31 -51.945,-20.31 -50.773,0 -72.254,34.956 -72.45,70.498 -0.195,35.736 23.044,72.058 72.45,72.058 18.551,0 36.128,-7.03 50.187,-20.895 L -18.942,84.752 c -8.984,8.788 -21.091,12.889 -33.003,12.889 -33.002,0 -47.258,-24.606 -47.063,-47.453 0.195,-22.653 13.279,-46.282 47.063,-46.282 11.912,0 25.386,4.882 34.369,13.865 z"
             style="fill:#02a6e5;fill-opacity:1;fill-rule:nonzero;stroke:none"
             id="path38" /></g><g
           id="g40"
           transform="translate(1962.1563,1046.8867)"><path
             d="m 0,0 c 0.586,-22.458 12.692,-46.477 44.914,-46.477 32.222,0 44.329,24.215 44.72,46.672 0.39,23.043 -12.498,48.821 -44.72,48.821 C 12.692,49.016 -0.586,23.043 0,0 M 115.021,0.585 C 114.63,-34.76 92.953,-70.106 44.914,-70.106 c -48.039,0 -70.302,34.565 -70.302,70.497 0,35.931 23.044,72.058 70.302,72.058 47.064,0 70.496,-36.127 70.107,-71.864"
             style="fill:#02a6e5;fill-opacity:1;fill-rule:nonzero;stroke:none"
             id="path42" /></g><path
           d="m 2096.309,1113.478 h 25.582 V 976.781 h -25.582 z"
           style="fill:#02a6e5;fill-opacity:1;fill-rule:nonzero;stroke:none"
           id="path44" /><g
           id="g46"
           transform="translate(2235.9336,1113.8682)"><path
             d="M 0,0 H 25.777 V -136.893 H 9.765 v -0.195 l -71.864,92.368 v -92.173 H -87.876 V -0.195 h 20.895 L 0,-84.947 Z"
             style="fill:#02a6e5;fill-opacity:1;fill-rule:nonzero;stroke:none"
             id="path48" /></g><g
           id="g50"
           transform="translate(1272.625,899.96)"><path
             d="m 0,0 c -3.508,-3.509 -8.069,-5.192 -12.629,-5.192 -9.754,0 -17.822,6.736 -17.822,17.681 0,10.947 7.788,17.682 17.822,17.682 4.56,0 9.121,-1.755 12.629,-5.192 l -2.245,-2.175 c -2.807,2.805 -6.666,4.139 -10.384,4.139 -7.859,0 -14.454,-5.123 -14.454,-14.454 0,-9.332 6.595,-14.454 14.454,-14.454 3.718,0 7.507,1.474 10.314,4.28 z"
             style="fill:#333333;fill-opacity:1;fill-rule:nonzero;stroke:none"
             id="path52" /></g><g
           id="g54"
           transform="translate(1282.8652,929.7803)"><path
             d="m 0,0 0.141,-6.175 c 2.174,4.701 7.087,6.526 11.507,6.526 2.596,0.07 5.122,-0.632 7.437,-2.035 L 17.542,-4.49 c -1.825,1.122 -3.859,1.613 -5.894,1.613 C 5.193,-2.946 0.211,-8.14 0.211,-14.454 V -34.662 H -3.227 V 0 Z"
             style="fill:#333333;fill-opacity:1;fill-rule:nonzero;stroke:none"
             id="path56" /></g><g
           id="g58"
           transform="translate(1337.3818,912.3789)"><path
             d="m 0,0 c 0,8.981 -6.385,14.806 -14.244,14.806 -7.859,0 -14.244,-5.825 -14.244,-14.806 0,-8.98 6.385,-14.384 14.244,-14.384 C -6.385,-14.384 0,-8.98 0,0 m -31.855,0 c 0,11.017 7.858,18.032 17.611,18.032 9.753,0 17.612,-7.015 17.612,-18.032 0,-11.016 -7.859,-17.751 -17.612,-17.751 -9.753,0 -17.611,6.735 -17.611,17.751"
             style="fill:#333333;fill-opacity:1;fill-rule:nonzero;stroke:none"
             id="path60" /></g><g
           id="g62"
           transform="translate(1372.4595,923.4658)"><path
             d="M 0,0 C -3.508,3.087 -6.946,3.647 -10.805,3.647 -16.208,3.719 -21.4,1.683 -21.26,-2.737 c 0.14,-4.631 6.175,-5.543 10.525,-6.315 6.174,-1.052 14.664,-2.105 14.314,-10.175 -0.211,-7.647 -8.14,-9.682 -14.244,-9.682 -6.104,0 -12.139,2.316 -15.156,6.947 l 2.527,2.245 c 2.877,-4.139 8.068,-5.894 12.699,-5.894 4.21,0 10.595,1.122 10.805,6.595 0.141,4.982 -5.613,5.964 -11.296,6.876 -6.736,1.123 -13.402,2.387 -13.472,9.332 -0.069,6.807 6.736,9.753 13.753,9.684 5.052,0 9.472,-1.404 12.91,-4.631 z"
             style="fill:#333333;fill-opacity:1;fill-rule:nonzero;stroke:none"
             id="path64" /></g><g
           id="g66"
           transform="translate(1407.4688,923.4658)"><path
             d="m 0,0 c -3.508,3.087 -6.946,3.647 -10.806,3.647 -5.402,0.072 -10.595,-1.964 -10.454,-6.384 0.14,-4.631 6.175,-5.543 10.525,-6.315 6.174,-1.052 14.664,-2.105 14.313,-10.175 -0.21,-7.647 -8.139,-9.682 -14.243,-9.682 -6.105,0 -12.139,2.316 -15.156,6.947 l 2.526,2.245 c 2.877,-4.139 8.069,-5.894 12.7,-5.894 4.21,0 10.595,1.122 10.805,6.595 0.141,4.982 -5.613,5.964 -11.296,6.876 -6.736,1.123 -13.402,2.387 -13.472,9.332 -0.07,6.807 6.736,9.753 13.752,9.684 5.053,0 9.473,-1.404 12.911,-4.631 z"
             style="fill:#333333;fill-opacity:1;fill-rule:nonzero;stroke:none"
             id="path68" /></g><g
           id="g70"
           transform="translate(1466.4014,899.96)"><path
             d="m 0,0 c -3.508,-3.509 -8.069,-5.192 -12.63,-5.192 -9.753,0 -17.822,6.736 -17.822,17.681 0,10.947 7.788,17.682 17.822,17.682 4.561,0 9.122,-1.755 12.63,-5.192 l -2.245,-2.175 c -2.807,2.805 -6.666,4.139 -10.385,4.139 -7.858,0 -14.453,-5.123 -14.453,-14.454 0,-9.332 6.595,-14.454 14.453,-14.454 3.719,0 7.508,1.474 10.315,4.28 z"
             style="fill:#333333;fill-opacity:1;fill-rule:nonzero;stroke:none"
             id="path72" /></g><g
           id="g74"
           transform="translate(1476.7114,944.2334)"><path
             d="m 0,0 v -20.909 c 2.807,4.982 7.648,6.877 12.49,6.947 9.683,0 14.524,-6.245 14.524,-15.296 v -19.857 h -3.368 v 19.857 c 0,7.157 -3.368,11.998 -11.156,11.998 -7.297,0 -12.349,-5.613 -12.349,-12.841 V -49.115 H -3.297 V 0 Z"
             style="fill:#333333;fill-opacity:1;fill-rule:nonzero;stroke:none"
             id="path76" /></g><g
           id="g78"
           transform="translate(1514.2461,912.4492)"><path
             d="m 0,0 c 0,-8.7 6.315,-14.524 14.174,-14.524 19.295,0 19.295,28.978 0,28.978 C 6.315,14.454 0,8.7 0,0 m 31.785,17.331 v -34.662 h -3.437 v 7.368 c -3.369,-5.404 -8.561,-7.93 -14.174,-7.93 -9.683,0 -17.612,7.298 -17.612,17.893 0,10.595 7.929,17.752 17.612,17.752 5.613,0 11.297,-2.597 14.174,-7.999 v 7.578 z"
             style="fill:#333333;fill-opacity:1;fill-rule:nonzero;stroke:none"
             id="path80" /></g><path
           d="m 1555.358,895.118 h 3.438 v 34.802 h -3.438 z m 4.562,45.958 c 0,-3.648 -5.544,-3.648 -5.544,0 0,3.65 5.544,3.65 5.544,0"
           style="fill:#333333;fill-opacity:1;fill-rule:nonzero;stroke:none"
           id="path82" /><g
           id="g84"
           transform="translate(1571.9863,929.7803)"><path
             d="m 0,0 v -6.175 c 2.666,4.771 7.507,6.737 12.349,6.806 9.262,0 15.647,-5.683 15.647,-15.296 v -19.997 h -3.438 v 19.927 c 0,7.858 -4.841,12.068 -12.349,11.998 C 5.052,-2.807 0.07,-8.209 0.07,-15.366 V -34.662 H -3.368 V 0 Z"
             style="fill:#333333;fill-opacity:1;fill-rule:nonzero;stroke:none"
             id="path86" /></g><g
           id="g88"
           transform="translate(1631.8311,895.1182)"><path
             d="m 0,0 v 31.363 h -7.087 v 3.018 H 0 v 3.088 c 0,6.876 2.736,11.857 10.384,11.857 2.596,0 4.912,-0.912 6.877,-2.386 l -1.684,-2.525 c -1.894,1.123 -3.227,1.754 -5.333,1.754 -4.35,0 -6.876,-2.667 -6.876,-8.7 V 34.381 H 14.805 V 31.363 H 3.368 V 0 Z"
             style="fill:#333333;fill-opacity:1;fill-rule:nonzero;stroke:none"
             id="path90" /></g><path
           d="m 1654.002,895.118 h 3.438 v 34.802 h -3.438 z m 4.561,45.958 c 0,-3.648 -5.544,-3.648 -5.544,0 0,3.65 5.544,3.65 5.544,0"
           style="fill:#333333;fill-opacity:1;fill-rule:nonzero;stroke:none"
           id="path92" /><g
           id="g94"
           transform="translate(1670.6299,929.7803)"><path
             d="m 0,0 v -6.175 c 2.666,4.771 7.507,6.737 12.349,6.806 9.261,0 15.647,-5.683 15.647,-15.296 v -19.997 h -3.438 v 19.927 c 0,7.858 -4.842,12.068 -12.35,11.998 C 5.052,-2.807 0.069,-8.209 0.069,-15.366 V -34.662 H -3.368 V 0 Z"
             style="fill:#333333;fill-opacity:1;fill-rule:nonzero;stroke:none"
             id="path96" /></g><g
           id="g98"
           transform="translate(1709.1455,912.4492)"><path
             d="m 0,0 c 0,-8.7 6.315,-14.524 14.174,-14.524 19.296,0 19.296,28.978 0,28.978 C 6.315,14.454 0,8.7 0,0 m 31.786,17.331 v -34.662 h -3.438 v 7.368 c -3.369,-5.404 -8.561,-7.93 -14.174,-7.93 -9.683,0 -17.612,7.298 -17.612,17.893 0,10.595 7.929,17.752 17.612,17.752 5.613,0 11.297,-2.597 14.174,-7.999 v 7.578 z"
             style="fill:#333333;fill-opacity:1;fill-rule:nonzero;stroke:none"
             id="path100" /></g><g
           id="g102"
           transform="translate(1753.626,929.7803)"><path
             d="m 0,0 v -6.175 c 2.666,4.771 7.508,6.737 12.35,6.806 9.261,0 15.646,-5.683 15.646,-15.296 v -19.997 h -3.438 v 19.927 c 0,7.858 -4.841,12.068 -12.349,11.998 C 5.052,-2.807 0.07,-8.209 0.07,-15.366 V -34.662 H -3.368 V 0 Z"
             style="fill:#333333;fill-opacity:1;fill-rule:nonzero;stroke:none"
             id="path104" /></g><g
           id="g106"
           transform="translate(1819.0156,899.96)"><path
             d="m 0,0 c -3.508,-3.509 -8.068,-5.192 -12.629,-5.192 -9.753,0 -17.822,6.736 -17.822,17.681 0,10.947 7.788,17.682 17.822,17.682 4.561,0 9.121,-1.755 12.629,-5.192 l -2.245,-2.175 c -2.807,2.805 -6.665,4.139 -10.384,4.139 -7.858,0 -14.454,-5.123 -14.454,-14.454 0,-9.332 6.596,-14.454 14.454,-14.454 3.719,0 7.507,1.474 10.314,4.28 z"
             style="fill:#333333;fill-opacity:1;fill-rule:nonzero;stroke:none"
             id="path108" /></g><path
           d="m 1826.029,895.118 h 3.438 v 34.802 h -3.438 z m 4.561,45.958 c 0,-3.648 -5.543,-3.648 -5.543,0 0,3.65 5.543,3.65 5.543,0"
           style="fill:#333333;fill-opacity:1;fill-rule:nonzero;stroke:none"
           id="path110" /><g
           id="g112"
           transform="translate(1840.832,912.4492)"><path
             d="m 0,0 c 0,-8.7 6.314,-14.524 14.173,-14.524 19.296,0 19.296,28.978 0,28.978 C 6.314,14.454 0,8.7 0,0 m 31.784,17.331 v -34.662 h -3.437 v 7.368 c -3.368,-5.404 -8.561,-7.93 -14.174,-7.93 -9.683,0 -17.611,7.298 -17.611,17.893 0,10.595 7.928,17.752 17.611,17.752 5.613,0 11.297,-2.597 14.174,-7.999 v 7.578 z"
             style="fill:#333333;fill-opacity:1;fill-rule:nonzero;stroke:none"
             id="path114" /></g><path
           d="m 1885.383,895.118 h -3.438 v 49.115 h 3.438 z"
           style="fill:#333333;fill-opacity:1;fill-rule:nonzero;stroke:none"
           id="path116" /><g
           id="g118"
           transform="translate(1915.8301,912.4492)"><path
             d="m 0,0 c 0,-8.7 6.314,-14.524 14.173,-14.524 19.296,0 19.296,28.978 0,28.978 C 6.314,14.454 0,8.7 0,0 m 31.784,17.331 v -34.662 h -3.437 v 7.368 c -3.368,-5.404 -8.561,-7.93 -14.174,-7.93 -9.683,0 -17.611,7.298 -17.611,17.893 0,10.595 7.928,17.752 17.611,17.752 5.613,0 11.297,-2.597 14.174,-7.999 v 7.578 z"
             style="fill:#333333;fill-opacity:1;fill-rule:nonzero;stroke:none"
             id="path120" /></g><g
           id="g122"
           transform="translate(1988.7256,912.4492)"><path
             d="m 0,0 c 0,9.753 -6.314,14.524 -14.173,14.524 -8.069,0 -14.033,-6.105 -14.033,-14.594 0,-8.491 6.105,-14.594 14.033,-14.594 C -6.314,-14.664 0,-9.754 0,0 m -31.784,-31.785 v 49.116 h 3.368 V 9.122 c 2.736,5.263 8.279,8.7 15.016,8.7 C -3.998,17.471 3.438,11.156 3.438,0 c 0,-11.647 -7.858,-17.963 -17.611,-17.963 -5.893,0 -11.366,2.877 -14.313,8.631 v -22.453 z"
             style="fill:#333333;fill-opacity:1;fill-rule:nonzero;stroke:none"
             id="path124" /></g><g
           id="g126"
           transform="translate(2032.3662,912.4492)"><path
             d="m 0,0 c 0,9.753 -6.316,14.524 -14.175,14.524 -8.069,0 -14.033,-6.105 -14.033,-14.594 0,-8.491 6.105,-14.594 14.033,-14.594 C -6.316,-14.664 0,-9.754 0,0 m -31.786,-31.785 v 49.116 h 3.368 V 9.122 c 2.737,5.263 8.279,8.7 15.016,8.7 C -4,17.471 3.438,11.156 3.438,0 c 0,-11.647 -7.86,-17.963 -17.613,-17.963 -5.893,0 -11.366,2.877 -14.312,8.631 v -22.453 z"
             style="fill:#333333;fill-opacity:1;fill-rule:nonzero;stroke:none"
             id="path128" /></g><path
           d="m 2047.657,895.118 h -3.438 v 49.115 h 3.438 z"
           style="fill:#333333;fill-opacity:1;fill-rule:nonzero;stroke:none"
           id="path130" /><path
           d="m 2057.268,895.118 h 3.438 v 34.802 h -3.438 z m 4.56,45.958 c 0,-3.648 -5.542,-3.648 -5.542,0 0,3.65 5.542,3.65 5.542,0"
           style="fill:#333333;fill-opacity:1;fill-rule:nonzero;stroke:none"
           id="path132" /><g
           id="g134"
           transform="translate(2098.9443,899.96)"><path
             d="m 0,0 c -3.508,-3.509 -8.068,-5.192 -12.63,-5.192 -9.753,0 -17.822,6.736 -17.822,17.681 0,10.947 7.789,17.682 17.822,17.682 4.562,0 9.122,-1.755 12.63,-5.192 l -2.245,-2.175 c -2.806,2.805 -6.666,4.139 -10.385,4.139 -7.858,0 -14.454,-5.123 -14.454,-14.454 0,-9.332 6.596,-14.454 14.454,-14.454 3.719,0 7.508,1.474 10.315,4.28 z"
             style="fill:#333333;fill-opacity:1;fill-rule:nonzero;stroke:none"
             id="path136" /></g><g
           id="g138"
           transform="translate(2107.501,912.4492)"><path
             d="m 0,0 c 0,-8.7 6.314,-14.524 14.173,-14.524 19.296,0 19.296,28.978 0,28.978 C 6.314,14.454 0,8.7 0,0 m 31.784,17.331 v -34.662 h -3.436 v 7.368 c -3.369,-5.404 -8.562,-7.93 -14.175,-7.93 -9.683,0 -17.611,7.298 -17.611,17.893 0,10.595 7.928,17.752 17.611,17.752 5.613,0 11.297,-2.597 14.175,-7.999 v 7.578 z"
             style="fill:#333333;fill-opacity:1;fill-rule:nonzero;stroke:none"
             id="path140" /></g><g
           id="g142"
           transform="translate(2155.0684,940.2344)"><path
             d="m 0,0 v -10.454 h 11.787 v -2.877 H 0 v -21.12 c 0,-4.701 0.982,-7.998 6.385,-7.998 1.683,0 3.578,0.56 5.332,1.402 l 1.193,-2.807 c -2.175,-1.051 -4.35,-1.752 -6.525,-1.752 -7.368,0 -9.753,4.348 -9.753,11.155 v 21.12 h -7.368 v 2.877 h 7.368 v 10.103 z"
             style="fill:#333333;fill-opacity:1;fill-rule:nonzero;stroke:none"
             id="path144" /></g><path
           d="m 2174.781,895.118 h 3.438 v 34.802 h -3.438 z m 4.562,45.958 c 0,-3.648 -5.543,-3.648 -5.543,0 0,3.65 5.543,3.65 5.543,0"
           style="fill:#333333;fill-opacity:1;fill-rule:nonzero;stroke:none"
           id="path146" /><g
           id="g148"
           transform="translate(2219.0547,912.3789)"><path
             d="m 0,0 c 0,8.981 -6.386,14.806 -14.244,14.806 -7.859,0 -14.243,-5.825 -14.243,-14.806 0,-8.98 6.384,-14.384 14.243,-14.384 C -6.386,-14.384 0,-8.98 0,0 m -31.855,0 c 0,11.017 7.858,18.032 17.611,18.032 9.753,0 17.612,-7.015 17.612,-18.032 0,-11.016 -7.859,-17.751 -17.612,-17.751 -9.753,0 -17.611,6.735 -17.611,17.751"
             style="fill:#333333;fill-opacity:1;fill-rule:nonzero;stroke:none"
             id="path150" /></g><g
           id="g152"
           transform="translate(2233.7139,929.7803)"><path
             d="m 0,0 v -6.175 c 2.667,4.771 7.508,6.737 12.35,6.806 9.261,0 15.647,-5.683 15.647,-15.296 v -19.997 h -3.438 v 19.927 c 0,7.858 -4.842,12.068 -12.35,11.998 C 5.052,-2.807 0.07,-8.209 0.07,-15.366 V -34.662 H -3.368 V 0 Z"
             style="fill:#333333;fill-opacity:1;fill-rule:nonzero;stroke:none"
             id="path154" /></g><g
           id="g156"
           transform="translate(1048.6426,1047.4663)"><path
             d="m 0,0 v -47.466 -47.466 l 114.635,-66.186 V -47.466 66.185 Z"
             style="fill:#ff6c18;fill-opacity:1;fill-rule:nonzero;stroke:none"
             id="path158" /></g><g
           id="g160"
           transform="translate(852.9248,934.4687)"><path
             d="m 0,0 -114.636,-66.186 196.85,-113.65 v 132.369 z"
             style="fill:#02a6e5;fill-opacity:1;fill-rule:nonzero;stroke:none"
             id="path162" /></g><g
           id="g164"
           transform="translate(1038.2124,1065.5313)"><path
             d="M 0,0 114.636,66.185 -82.214,179.836 V 47.466 Z"
             style="fill:#02a6e5;fill-opacity:1;fill-rule:nonzero;stroke:none"
             id="path166" /></g><g
           id="g168"
           transform="translate(935.1387,1112.9976)"><path
             d="M 0,0 V 132.37 L -196.85,18.719 -82.214,-47.466 Z"
             style="fill:#02a6e5;fill-opacity:1;fill-rule:nonzero;stroke:none"
             id="path170" /></g><g
           id="g172"
           transform="translate(955.9985,887.002)"><path
             d="M 0,0 V -132.369 L 196.85,-18.719 82.214,47.467 Z"
             style="fill:#02a6e5;fill-opacity:1;fill-rule:nonzero;stroke:none"
             id="path174" /></g></g></g></g></svg>

