<svg width="350" height="64" viewBox="0 0 350 64" fill="none" xmlns="http://www.w3.org/2000/svg">
   <g transform="translate(0.000000,492.000000) scale(0.100000,-0.100000)"
fill="#000000" stroke="none">
<path d="M7350 1655 c0 -235 1 -245 19 -245 18 0 20 10 23 125 3 124 3 125 33
155 37 36 91 48 135 30 50 -21 60 -53 60 -190 0 -115 1 -120 21 -120 20 0 21
3 17 128 -4 142 -17 180 -68 207 -46 24 -121 19 -164 -10 l-36 -24 0 94 c0 88
-1 95 -20 95 -19 0 -20 -7 -20 -245z"/>
<path d="M8170 1885 c-11 -13 -11 -18 2 -31 20 -20 50 -7 46 20 -4 26 -30 32
-48 11z"/>
<path d="M8970 1880 c-20 -20 -27 -42 -32 -95 -3 -26 -7 -30 -35 -33 -47 -5
-44 -32 2 -32 l35 0 0 -155 c0 -131 2 -155 15 -155 13 0 15 24 15 155 l0 154
57 3 c78 4 83 26 6 30 -57 3 -58 4 -61 34 -2 19 5 40 19 58 20 25 27 28 65 22
27 -3 46 -1 50 5 20 33 -104 41 -136 9z"/>
<path d="M9157 1893 c-13 -12 -7 -41 10 -47 9 -4 23 0 31 8 13 12 13 18 2 30
-13 17 -32 21 -43 9z"/>
<path d="M10877 1893 c-13 -12 -7 -41 10 -47 9 -4 23 0 31 8 13 12 13 18 2 30
-13 17 -32 21 -43 9z"/>
<path d="M11440 1655 c0 -211 2 -245 15 -245 13 0 15 34 15 245 0 211 -2 245
-15 245 -13 0 -15 -34 -15 -245z"/>
<path d="M13060 1655 c0 -238 1 -245 20 -245 19 0 20 7 20 245 0 238 -1 245
-20 245 -19 0 -20 -7 -20 -245z"/>
<path d="M13190 1884 c-11 -12 -10 -18 3 -32 16 -15 18 -15 33 0 19 18 12 48
-9 48 -8 0 -20 -7 -27 -16z"/>
<path d="M14364 1886 c-9 -24 4 -48 23 -44 12 2 18 12 18 28 0 29 -32 41 -41
16z"/>
<path d="M14140 1810 l0 -50 -40 0 c-54 0 -56 -27 -2 -32 l37 -3 5 -136 c6
-163 14 -179 89 -179 25 0 52 4 60 9 25 16 2 29 -42 24 -68 -8 -77 12 -77 164
l0 123 60 0 c47 0 60 3 60 15 0 12 -13 15 -60 15 l-60 0 0 50 c0 38 -4 50 -15
50 -11 0 -15 -12 -15 -50z"/>
<path d="M5134 1741 c-59 -27 -89 -79 -89 -156 0 -106 68 -175 170 -175 73 0
142 37 117 62 -6 6 -21 2 -43 -11 -63 -38 -153 -18 -190 43 -23 38 -25 116 -3
157 17 33 81 68 124 69 14 0 43 -9 65 -20 23 -12 43 -16 48 -11 13 13 2 26
-37 45 -45 21 -111 20 -162 -3z"/>
<path d="M5420 1585 c0 -144 2 -175 14 -175 11 0 15 25 18 124 3 122 4 125 32
155 33 35 79 47 118 32 20 -8 28 -7 32 4 16 42 -116 46 -159 5 l-25 -23 0 26
c0 17 -5 27 -15 27 -13 0 -15 -26 -15 -175z"/>
<path d="M5759 1738 c-52 -30 -79 -82 -79 -155 0 -116 64 -176 180 -171 111 6
164 61 165 174 0 109 -66 174 -177 174 -35 0 -65 -7 -89 -22z m157 -24 c47
-22 74 -70 74 -130 0 -85 -58 -144 -142 -144 -97 0 -169 121 -124 208 16 30
53 66 76 75 30 11 83 7 116 -9z"/>
<path d="M6143 1740 c-55 -33 -58 -101 -6 -136 18 -12 54 -25 80 -28 73 -11
112 -26 124 -47 39 -74 -95 -118 -190 -64 -29 17 -48 22 -54 16 -28 -28 59
-71 143 -71 93 0 140 32 140 95 0 57 -34 79 -161 105 -70 14 -97 39 -81 75 7
14 23 30 38 35 37 14 105 12 134 -5 32 -18 50 -19 50 -1 0 43 -158 62 -217 26z"/>
<path d="M6493 1740 c-55 -33 -58 -101 -6 -136 18 -12 54 -25 80 -28 73 -11
112 -26 124 -47 39 -74 -95 -118 -190 -64 -29 17 -48 22 -54 16 -28 -28 59
-71 143 -71 93 0 140 32 140 95 0 57 -37 81 -161 105 -70 14 -97 39 -81 75 7
14 23 30 38 35 37 14 105 12 134 -5 32 -18 50 -19 50 -1 0 43 -158 62 -217 26z"/>
<path d="M7065 1737 c-140 -79 -98 -307 60 -325 57 -6 104 4 135 28 39 30 14
45 -35 20 -128 -65 -254 53 -197 183 11 25 32 53 46 62 41 27 105 30 150 6 38
-20 56 -20 56 -1 0 5 -18 19 -40 30 -53 27 -124 26 -175 -3z"/>
<path d="M7822 1743 c-18 -9 -45 -32 -60 -51 -23 -31 -27 -45 -27 -107 0 -63
3 -76 28 -108 41 -54 78 -70 153 -65 52 3 69 9 92 31 36 34 42 34 42 -3 0 -20
5 -30 15 -30 13 0 15 26 15 175 0 149 -2 175 -15 175 -11 0 -15 -11 -15 -37
l0 -37 -27 26 c-16 14 -38 31 -50 37 -32 16 -113 13 -151 -6z m147 -31 c100
-50 106 -186 12 -249 -57 -39 -145 -24 -188 31 -71 90 -1 236 112 236 17 0 45
-8 64 -18z"/>
<path d="M8170 1585 c0 -168 1 -175 20 -175 19 0 20 7 20 175 0 168 -1 175
-20 175 -19 0 -20 -7 -20 -175z"/>
<path d="M8310 1585 c0 -149 2 -175 15 -175 12 0 15 19 15 114 0 101 2 117 23
147 30 45 63 61 115 56 85 -9 112 -61 112 -219 0 -80 3 -98 15 -98 22 0 22
228 -1 276 -36 75 -153 100 -228 49 l-36 -24 0 24 c0 16 -6 25 -15 25 -13 0
-15 -26 -15 -175z"/>
<path d="M9160 1585 c0 -149 2 -175 15 -175 13 0 15 26 15 175 0 149 -2 175
-15 175 -13 0 -15 -26 -15 -175z"/>
<path d="M9290 1585 c0 -168 1 -175 20 -175 19 0 20 7 20 115 0 131 11 165 62
191 45 23 113 14 147 -20 25 -25 26 -31 29 -156 3 -120 5 -130 23 -130 18 0
19 8 19 108 0 128 -10 169 -50 207 -26 25 -40 30 -98 33 -62 4 -71 2 -100 -23
l-32 -27 0 26 c0 19 -5 26 -20 26 -19 0 -20 -7 -20 -175z"/>
<path d="M9775 1744 c-73 -38 -100 -91 -93 -181 8 -93 72 -153 165 -153 57 0
84 9 121 43 l22 20 0 -31 c0 -25 4 -32 20 -32 19 0 20 7 20 175 0 168 -1 175
-20 175 -16 0 -20 -7 -20 -32 l0 -31 -22 20 c-13 11 -33 26 -45 32 -31 16
-113 13 -148 -5z m161 -39 c38 -25 67 -97 59 -145 -23 -137 -204 -164 -268
-40 -22 43 -18 111 10 149 44 60 137 77 199 36z"/>
<path d="M10120 1585 c0 -168 1 -175 20 -175 19 0 20 7 20 115 0 131 11 165
62 191 45 23 113 14 147 -20 25 -25 26 -31 29 -156 3 -120 5 -130 23 -130 18
0 19 8 19 108 0 128 -10 169 -50 207 -26 25 -40 30 -98 33 -62 4 -71 2 -100
-23 l-32 -27 0 26 c0 19 -5 26 -20 26 -19 0 -20 -7 -20 -175z"/>
<path d="M10610 1749 c-65 -26 -100 -85 -100 -167 0 -65 21 -108 72 -145 42
-31 133 -35 186 -8 23 12 42 26 42 31 0 19 -21 20 -57 0 -69 -37 -146 -17
-190 49 -46 69 -19 165 57 203 46 23 87 23 133 -2 36 -19 57 -19 57 0 0 4 -19
18 -43 29 -46 22 -115 27 -157 10z"/>
<path d="M10880 1585 c0 -149 2 -175 15 -175 13 0 15 26 15 175 0 149 -2 175
-15 175 -13 0 -15 -26 -15 -175z"/>
<path d="M11095 1746 c-65 -28 -114 -121 -100 -189 20 -95 81 -147 174 -147
55 0 82 10 119 43 l22 20 0 -31 c0 -25 4 -32 20 -32 19 0 20 7 20 175 0 168
-1 175 -20 175 -16 0 -20 -7 -20 -37 0 -36 -1 -37 -15 -17 -33 49 -135 69
-200 40z m143 -35 c20 -11 45 -33 55 -49 24 -41 22 -118 -3 -160 -36 -59 -126
-79 -188 -42 -98 60 -94 201 8 252 45 23 82 23 128 -1z"/>
<path d="M11845 1746 c-65 -28 -114 -121 -100 -189 20 -95 81 -147 174 -147
55 0 82 10 119 43 l22 20 0 -31 c0 -25 4 -32 20 -32 19 0 20 7 20 175 0 168
-1 175 -20 175 -16 0 -20 -7 -20 -37 0 -36 -1 -37 -15 -17 -33 49 -135 69
-200 40z m143 -35 c20 -11 45 -33 55 -49 24 -41 22 -118 -3 -160 -36 -59 -126
-79 -188 -42 -98 60 -94 201 8 252 45 23 82 23 128 -1z"/>
<path d="M12190 1515 c0 -211 2 -245 15 -245 12 0 15 19 15 107 l0 107 34 -33
c40 -39 97 -53 157 -40 58 13 85 35 110 85 27 57 24 150 -7 191 -41 54 -70 68
-144 68 -62 0 -72 -3 -109 -33 l-41 -33 0 36 c0 24 -4 35 -15 35 -13 0 -15
-34 -15 -245z m234 201 c131 -55 100 -260 -42 -274 -92 -8 -152 48 -152 143 0
109 94 173 194 131z"/>
<path d="M12630 1515 c0 -211 2 -245 15 -245 12 0 15 19 15 107 0 100 1 106
16 85 36 -52 147 -72 212 -38 119 61 120 255 2 317 -39 21 -119 25 -153 8 -12
-6 -34 -23 -49 -37 l-28 -26 0 37 c0 26 -4 37 -15 37 -13 0 -15 -34 -15 -245z
m235 201 c98 -41 102 -211 6 -261 -100 -51 -219 31 -208 144 6 52 31 90 78
113 41 22 78 23 124 4z"/>
<path d="M13190 1585 c0 -168 1 -175 20 -175 19 0 20 7 20 175 0 168 -1 175
-20 175 -19 0 -20 -7 -20 -175z"/>
<path d="M13410 1749 c-63 -25 -101 -87 -101 -164 0 -108 68 -175 178 -175 43
0 123 33 123 51 0 19 -22 18 -59 -1 -68 -34 -127 -23 -180 34 -36 39 -41 119
-9 166 45 67 122 87 191 50 36 -19 57 -19 57 0 0 4 -19 18 -43 29 -46 22 -115
27 -157 10z"/>
<path d="M13746 1737 c-77 -43 -106 -147 -67 -233 28 -61 72 -88 151 -92 60
-3 68 -1 108 27 l42 31 0 -30 c0 -20 5 -30 15 -30 13 0 15 26 15 175 0 149 -2
175 -15 175 -11 0 -15 -11 -15 -37 0 -38 -1 -38 -18 -17 -45 56 -147 71 -216
31z m154 -25 c102 -51 106 -192 8 -252 -62 -37 -152 -17 -188 42 -27 44 -27
122 0 162 39 61 115 81 180 48z"/>
<path d="M14370 1585 c0 -149 2 -175 15 -175 13 0 15 26 15 175 0 149 -2 175
-15 175 -13 0 -15 -26 -15 -175z"/>
<path d="M14581 1743 c-18 -9 -45 -34 -60 -57 -21 -32 -26 -51 -26 -100 1
-111 54 -167 161 -174 114 -8 184 58 184 173 0 109 -65 175 -171 175 -30 0
-69 -8 -88 -17z m157 -33 c157 -96 31 -332 -135 -253 -20 9 -44 30 -54 47 -26
42 -25 121 1 164 36 60 126 80 188 42z"/>
<path d="M14920 1585 c0 -168 1 -175 20 -175 19 0 20 7 20 121 l0 121 40 40
c39 39 42 40 92 36 42 -4 57 -11 80 -37 28 -31 28 -33 28 -156 0 -118 1 -125
20 -125 19 0 20 7 20 108 0 128 -10 169 -51 208 -28 27 -36 29 -104 29 -64 0
-77 -3 -99 -24 l-26 -24 0 26 c0 20 -5 27 -20 27 -19 0 -20 -7 -20 -175z"/>
</g>
</svg>

